<svg width="600" height="600" viewBox="0 0 600 600" fill="none" xmlns="http://www.w3.org/2000/svg">
    <g clip-path="url(#clip0_116_64)">
        <g clip-path="url(#clip1_116_64)">
            <path d="M119.81 189.2C119.81 179.493 123.351 170.184 129.653 163.32C135.955 156.456 144.503 152.6 153.416 152.6C157.872 152.6 162.146 150.672 165.297 147.24C168.448 143.808 170.218 139.153 170.218 134.3C170.218 129.447 168.448 124.792 165.297 121.36C162.146 117.928 157.872 116 153.416 116C135.59 116 118.495 123.712 105.891 137.44C93.2865 151.167 86.2054 169.786 86.2054 189.2V244.1C86.2054 253.807 82.6649 263.116 76.3627 269.98C70.0606 276.844 61.513 280.7 52.6004 280.7C48.1441 280.7 43.8703 282.628 40.7192 286.06C37.5681 289.492 35.7979 294.147 35.7979 299C35.7979 303.853 37.5681 308.508 40.7192 311.94C43.8703 315.372 48.1441 317.3 52.6004 317.3C61.513 317.3 70.0606 321.156 76.3627 328.02C82.6649 334.884 86.2054 344.193 86.2054 353.9V408.8C86.2054 428.214 93.2865 446.833 105.891 460.56C118.495 474.288 135.59 482 153.416 482C157.872 482 162.146 480.072 165.297 476.64C168.448 473.208 170.218 468.553 170.218 463.7C170.218 458.847 168.448 454.192 165.297 450.76C162.146 447.328 157.872 445.4 153.416 445.4C144.503 445.4 135.955 441.544 129.653 434.68C123.351 427.816 119.81 418.507 119.81 408.8V353.9C119.756 343.479 117.66 333.19 113.661 323.722C109.662 314.255 103.853 305.826 96.623 299C103.853 292.174 109.662 283.745 113.661 274.278C117.66 264.81 119.756 254.521 119.81 244.1V189.2ZM388.651 280.7C379.738 280.7 371.191 276.844 364.889 269.98C358.586 263.116 355.046 253.807 355.046 244.1V189.2C355.046 169.786 347.965 151.167 335.36 137.44C322.756 123.712 305.661 116 287.836 116C283.379 116 279.106 117.928 275.955 121.36C272.803 124.792 271.033 129.447 271.033 134.3C271.033 139.153 272.803 143.808 275.955 147.24C279.106 150.672 283.379 152.6 287.836 152.6C296.748 152.6 305.296 156.456 311.598 163.32C317.9 170.184 321.441 179.493 321.441 189.2V244.1C321.495 254.521 323.591 264.81 327.59 274.278C331.589 283.745 337.398 292.174 344.628 299C337.398 305.826 331.589 314.255 327.59 323.722C323.591 333.19 321.495 343.479 321.441 353.9V408.8C321.441 418.507 317.9 427.816 311.598 434.68C305.296 441.544 296.748 445.4 287.836 445.4C283.379 445.4 279.106 447.328 275.955 450.76C272.803 454.192 271.033 458.847 271.033 463.7C271.033 468.553 272.803 473.208 275.955 476.64C279.106 480.072 283.379 482 287.836 482C305.661 482 322.756 474.288 335.36 460.56C347.965 446.833 355.046 428.214 355.046 408.8V353.9C355.046 344.193 358.586 334.884 364.889 328.02C371.191 321.156 379.738 317.3 388.651 317.3C393.107 317.3 397.381 315.372 400.532 311.94C403.683 308.508 405.453 303.853 405.453 299C405.453 294.147 403.683 289.492 400.532 286.06C397.381 282.628 393.107 280.7 388.651 280.7Z"
                  fill="#607D8B"/>
        </g>
        <path d="M248.067 329.878C247.542 328.991 247.191 328.001 247.042 326.963C247.191 328.001 247.542 328.991 248.067 329.878Z"
              fill="#083042"/>
        <path d="M247.978 272.123H247.978C247.484 273.3 247.154 274.561 247.026 275.882C247.154 274.561 247.484 273.3 247.978 272.123Z"
              fill="#083042"/>
        <path d="M249.336 331.502C249.83 331.988 250.392 332.413 251.012 332.762L293.288 356.609L251.012 332.762C250.392 332.413 249.83 331.988 249.336 331.502Z"
              fill="#083042"/>
        <path d="M299.79 386.754C299.677 386.757 299.565 386.767 299.452 386.768C296.362 386.793 293.261 386.022 290.479 384.452L227.409 348.876C223.707 346.795 221.408 342.893 221.367 338.654L221.366 266.313C221.335 263.226 221.946 260.25 223.2 257.628L173.89 230.039C171.814 234.373 170.802 239.292 170.853 244.395L170.855 363.804C170.923 370.802 174.718 377.242 180.829 380.677L284.934 439.401C289.527 441.991 294.645 443.265 299.746 443.224L299.747 443.14C299.863 435.693 299.827 405.654 299.79 386.754Z"
              fill="#083042"/>
        <path d="M349.369 270.801V270.801C349.251 270.605 349.131 270.411 349.002 270.222C348.714 269.798 348.4 269.392 348.063 269.004C348.4 269.392 348.714 269.798 349.002 270.222C349.131 270.411 349.251 270.605 349.369 270.801Z"
              fill="#3DDB85"/>
        <path d="M248.558 270.894C248.815 270.439 249.104 270.003 249.425 269.59C249.104 270.003 248.815 270.439 248.558 270.894Z"
              fill="#3DDB85"/>
        <path d="M297.366 241.88C297.65 241.857 297.935 241.841 298.22 241.839C297.935 241.841 297.65 241.857 297.366 241.88Z"
              fill="#3DDB85"/>
        <path d="M223.205 257.616C224.557 254.794 226.654 252.386 229.51 250.701L288.883 215.722C294.407 212.462 301.25 212.399 306.837 215.55L366.86 249.406C369.536 250.917 371.879 253.05 373.594 255.575C373.601 255.585 373.607 255.595 373.613 255.605L422.129 226.67C419.298 222.503 415.43 218.981 411.013 216.487L311.936 160.602C302.713 155.402 291.418 155.506 282.301 160.886L184.297 218.624C179.583 221.405 176.12 225.381 173.89 230.039L223.2 257.627C223.202 257.624 223.204 257.62 223.205 257.616Z"
              fill="#3DDC84"/>
        <path d="M294.9 242.344C295.027 242.306 295.155 242.269 295.283 242.235C295.155 242.269 295.027 242.306 294.9 242.344Z"
              fill="#3DDB85"/>
        <path d="M248.194 271.59C248.308 271.353 248.429 271.121 248.558 270.894C248.429 271.121 248.308 271.353 248.194 271.59C248.112 271.762 248.053 271.946 247.979 272.123H247.979C248.053 271.946 248.112 271.762 248.194 271.59Z"
              fill="#3DDB85"/>
        <path d="M422.129 226.67L373.614 255.605C375.471 258.341 376.603 261.523 376.636 264.846L376.635 333.688C376.693 340.098 373.329 346.047 367.806 349.301L308.432 384.286C305.763 385.862 302.784 386.675 299.79 386.754C299.827 405.654 299.864 435.693 299.747 443.14L299.746 443.224C304.875 443.182 309.997 441.825 314.569 439.126L412.574 381.379C421.691 376.008 427.243 366.187 427.147 355.607L427.149 241.973C427.095 236.468 425.215 231.196 422.129 226.67Z"
              fill="#4285F4"/>
        <path d="M350.48 326.302C350.441 326.426 350.399 326.548 350.356 326.67C350.399 326.548 350.441 326.426 350.48 326.302Z"
              fill="#4285F4"/>
        <path d="M349.845 271.654C349.699 271.363 349.538 271.08 349.369 270.801V270.801C349.538 271.08 349.699 271.363 349.845 271.654Z"
              fill="#4285F4"/>
        <path d="M305.322 356.497L345.121 333.047C345.352 332.911 345.578 332.767 345.798 332.617C345.578 332.767 345.352 332.911 345.121 333.047L305.322 356.497Z"
              fill="#4285F4"/>
        <path d="M349.94 327.699C349.799 328.008 349.649 328.312 349.482 328.607C349.649 328.312 349.799 328.008 349.94 327.699Z"
              fill="#4285F4"/>
        <path d="M347.045 331.639C347.632 331.113 348.162 330.533 348.63 329.91C348.162 330.533 347.632 331.113 347.045 331.639Z"
              fill="#4285F4"/>
        <path d="M349.483 328.607C349.228 329.059 348.943 329.494 348.631 329.91C348.943 329.494 349.228 329.059 349.483 328.607Z"
              fill="#4285F4"/>
        <path d="M247.979 272.123C247.484 273.3 247.154 274.561 247.027 275.882C246.978 276.388 246.956 276.901 246.962 277.42L246.962 325.91C246.966 326.265 246.993 326.617 247.043 326.963C247.191 328.001 247.543 328.991 248.067 329.878C248.417 330.47 248.843 331.016 249.337 331.502C249.831 331.988 250.392 332.413 251.013 332.762L293.289 356.609C295.154 357.661 297.232 358.178 299.303 358.161C299.453 358.16 299.603 358.15 299.753 358.143C301.685 358.056 303.6 357.515 305.323 356.497L345.121 333.047C345.353 332.911 345.578 332.767 345.798 332.617C346.238 332.317 346.654 331.99 347.045 331.639C347.632 331.113 348.163 330.533 348.631 329.91C348.943 329.494 349.228 329.059 349.483 328.607C349.65 328.312 349.8 328.008 349.941 327.699C350.095 327.363 350.234 327.02 350.357 326.67C350.4 326.548 350.441 326.425 350.48 326.302C350.854 325.115 351.051 323.863 351.039 322.581L351.04 276.436C351.032 275.598 350.919 274.773 350.716 273.972C350.58 273.438 350.404 272.915 350.191 272.406C350.085 272.152 349.97 271.901 349.846 271.654C349.7 271.363 349.538 271.08 349.369 270.801C349.251 270.605 349.13 270.411 349.001 270.222C348.714 269.798 348.4 269.392 348.063 269.004C347.053 267.84 345.833 266.846 344.487 266.086L304.253 243.392C303.551 242.996 302.819 242.676 302.069 242.431C301.069 242.105 300.037 241.914 298.999 241.856C298.74 241.842 298.48 241.836 298.22 241.839C297.935 241.841 297.651 241.856 297.367 241.879C296.665 241.936 295.968 242.056 295.283 242.235C295.155 242.269 295.028 242.306 294.901 242.344C293.974 242.62 293.073 243.004 292.219 243.508L252.421 266.954C251.224 267.66 250.226 268.556 249.425 269.59C249.105 270.003 248.815 270.439 248.558 270.894C248.429 271.121 248.308 271.353 248.195 271.59C248.112 271.762 248.053 271.946 247.979 272.123Z"
              fill="#D6F0FF"/>
        <path d="M299.753 358.143C299.603 358.15 299.453 358.16 299.303 358.161C297.232 358.178 295.154 357.661 293.289 356.609L251.013 332.762C250.392 332.413 249.831 331.988 249.337 331.502C248.843 331.016 248.417 330.47 248.067 329.878C247.543 328.991 247.191 328.001 247.043 326.963C246.993 326.617 246.966 326.265 246.962 325.91L246.962 277.42C246.956 276.901 246.978 276.388 247.027 275.882C247.154 274.561 247.484 273.3 247.979 272.123L236.563 265.103L223.201 257.627C221.947 260.25 221.336 263.226 221.366 266.313L221.367 338.654C221.409 342.893 223.708 346.795 227.41 348.876L290.479 384.452C293.262 386.022 296.362 386.793 299.452 386.768C299.565 386.767 299.678 386.757 299.791 386.754C299.773 377.533 299.755 370.963 299.755 370.963L299.753 358.143Z"
              fill="#083042"/>
        <path d="M299.753 358.143C299.603 358.15 299.453 358.16 299.303 358.161C297.232 358.178 295.154 357.661 293.289 356.609L251.013 332.762C250.392 332.413 249.831 331.988 249.337 331.502C248.843 331.016 248.417 330.47 248.067 329.878C247.543 328.991 247.191 328.001 247.043 326.963C246.993 326.617 246.966 326.265 246.962 325.91L246.962 277.42C246.956 276.901 246.978 276.388 247.027 275.882C247.154 274.561 247.484 273.3 247.979 272.123L236.563 265.103L223.201 257.627C221.947 260.25 221.336 263.226 221.366 266.313L221.367 338.654C221.409 342.893 223.708 346.795 227.41 348.876L290.479 384.452C293.262 386.022 296.362 386.793 299.452 386.768C299.565 386.767 299.678 386.757 299.791 386.754C299.773 377.533 299.755 370.963 299.755 370.963L299.753 358.143Z"
              fill="#041619"/>
        <path d="M366.86 249.406L306.837 215.55C301.249 212.399 294.407 212.462 288.883 215.722L229.51 250.701C226.654 252.386 224.557 254.794 223.205 257.616C223.203 257.62 223.202 257.624 223.2 257.627L236.563 265.104L247.978 272.123C248.053 271.946 248.112 271.762 248.194 271.59C248.307 271.353 248.428 271.121 248.557 270.894C248.815 270.439 249.104 270.003 249.425 269.59C250.226 268.556 251.224 267.66 252.42 266.954L292.219 243.508C293.072 243.004 293.974 242.62 294.9 242.344C295.027 242.306 295.154 242.269 295.282 242.235C295.968 242.056 296.665 241.936 297.366 241.879C297.65 241.856 297.935 241.841 298.22 241.839C298.48 241.836 298.739 241.842 298.999 241.857C300.037 241.914 301.069 242.105 302.069 242.431C302.819 242.676 303.551 242.996 304.253 243.392L344.487 266.086C345.832 266.846 347.052 267.84 348.063 269.004C348.4 269.392 348.714 269.799 349.001 270.222C349.13 270.411 349.25 270.605 349.369 270.801L359.632 263.944L373.613 255.605C373.606 255.595 373.601 255.585 373.594 255.575C371.879 253.05 369.536 250.917 366.86 249.406Z"
              fill="#3DDB85"/>
        <path d="M366.86 249.406L306.837 215.55C301.249 212.399 294.407 212.462 288.883 215.722L229.51 250.701C226.654 252.386 224.557 254.794 223.205 257.616C223.203 257.62 223.202 257.624 223.2 257.627L236.563 265.104L247.978 272.123C248.053 271.946 248.112 271.762 248.194 271.59C248.307 271.353 248.428 271.121 248.557 270.894C248.815 270.439 249.104 270.003 249.425 269.59C250.226 268.556 251.224 267.66 252.42 266.954L292.219 243.508C293.072 243.004 293.974 242.62 294.9 242.344C295.027 242.306 295.154 242.269 295.282 242.235C295.968 242.056 296.665 241.936 297.366 241.879C297.65 241.856 297.935 241.841 298.22 241.839C298.48 241.836 298.739 241.842 298.999 241.857C300.037 241.914 301.069 242.105 302.069 242.431C302.819 242.676 303.551 242.996 304.253 243.392L344.487 266.086C345.832 266.846 347.052 267.84 348.063 269.004C348.4 269.392 348.714 269.799 349.001 270.222C349.13 270.411 349.25 270.605 349.369 270.801L359.632 263.944L373.613 255.605C373.606 255.595 373.601 255.585 373.594 255.575C371.879 253.05 369.536 250.917 366.86 249.406Z"
              fill="#37BF6E"/>
        <path d="M349.369 270.801C349.538 271.08 349.699 271.363 349.845 271.654C349.969 271.901 350.085 272.152 350.191 272.406C350.404 272.915 350.58 273.438 350.715 273.972C350.919 274.773 351.031 275.598 351.04 276.436L351.039 322.581C351.051 323.863 350.854 325.115 350.48 326.302C350.441 326.426 350.4 326.548 350.357 326.67C350.234 327.02 350.095 327.363 349.941 327.699C349.799 328.008 349.65 328.312 349.483 328.607C349.227 329.059 348.943 329.494 348.631 329.91C348.162 330.533 347.632 331.113 347.045 331.639C346.654 331.99 346.238 332.317 345.798 332.617C345.578 332.767 345.352 332.911 345.121 333.047L305.322 356.497C303.599 357.515 301.684 358.056 299.753 358.143L299.755 370.963C299.755 370.963 299.772 377.533 299.79 386.754C302.784 386.674 305.763 385.862 308.432 384.286L367.805 349.301C373.329 346.047 376.693 340.098 376.634 333.688L376.635 264.846C376.603 261.523 375.471 258.341 373.613 255.605L359.632 263.944L349.369 270.801Z"
              fill="#4285F4"/>
        <path d="M349.369 270.801C349.538 271.08 349.699 271.363 349.845 271.654C349.969 271.901 350.085 272.152 350.191 272.406C350.404 272.915 350.58 273.438 350.715 273.972C350.919 274.773 351.031 275.598 351.04 276.436L351.039 322.581C351.051 323.863 350.854 325.115 350.48 326.302C350.441 326.426 350.4 326.548 350.357 326.67C350.234 327.02 350.095 327.363 349.941 327.699C349.799 328.008 349.65 328.312 349.483 328.607C349.227 329.059 348.943 329.494 348.631 329.91C348.162 330.533 347.632 331.113 347.045 331.639C346.654 331.99 346.238 332.317 345.798 332.617C345.578 332.767 345.352 332.911 345.121 333.047L305.322 356.497C303.599 357.515 301.684 358.056 299.753 358.143L299.755 370.963C299.755 370.963 299.772 377.533 299.79 386.754C302.784 386.674 305.763 385.862 308.432 384.286L367.805 349.301C373.329 346.047 376.693 340.098 376.634 333.688L376.635 264.846C376.603 261.523 375.471 258.341 373.613 255.605L359.632 263.944L349.369 270.801Z"
              fill="#3870B2"/>
        <path d="M294.9 242.344C293.973 242.619 293.072 243.004 292.218 243.508L252.42 266.954L292.218 243.508C293.072 243.004 293.973 242.619 294.9 242.344Z"
              fill="#D6F0FF"/>
        <path opacity="0.1"
              d="M294.9 242.344C293.973 242.619 293.072 243.004 292.218 243.508L252.42 266.954L292.218 243.508C293.072 243.004 293.973 242.619 294.9 242.344Z"
              fill="black"/>
        <path d="M348.063 269.004C347.052 267.84 345.832 266.846 344.487 266.086L304.253 243.392L344.487 266.086C345.832 266.846 347.052 267.84 348.063 269.004Z"
              fill="#D6F0FF"/>
        <path opacity="0.1"
              d="M348.063 269.004C347.052 267.84 345.832 266.846 344.487 266.086L304.253 243.392L344.487 266.086C345.832 266.846 347.052 267.84 348.063 269.004Z"
              fill="black"/>
        <path d="M298.22 241.839C298.479 241.836 298.739 241.842 298.999 241.857C298.739 241.842 298.479 241.836 298.22 241.839Z"
              fill="#D6F0FF"/>
        <path opacity="0.1"
              d="M298.22 241.839C298.479 241.836 298.739 241.842 298.999 241.857C298.739 241.842 298.479 241.836 298.22 241.839Z"
              fill="black"/>
        <path d="M295.282 242.235C295.967 242.056 296.664 241.936 297.366 241.879C296.664 241.936 295.967 242.056 295.282 242.235Z"
              fill="#D6F0FF"/>
        <path opacity="0.1"
              d="M295.282 242.235C295.967 242.056 296.664 241.936 297.366 241.879C296.664 241.936 295.967 242.056 295.282 242.235Z"
              fill="black"/>
        <path d="M298.999 241.857C300.037 241.914 301.069 242.105 302.069 242.431C301.069 242.105 300.037 241.914 298.999 241.857Z"
              fill="#D6F0FF"/>
        <path opacity="0.1"
              d="M298.999 241.857C300.037 241.914 301.069 242.105 302.069 242.431C301.069 242.105 300.037 241.914 298.999 241.857Z"
              fill="black"/>
        <path d="M350.356 326.67C350.234 327.02 350.095 327.363 349.94 327.699C350.095 327.363 350.234 327.02 350.356 326.67Z"
              fill="#D6F0FF"/>
        <path opacity="0.1"
              d="M350.356 326.67C350.234 327.02 350.095 327.363 349.94 327.699C350.095 327.363 350.234 327.02 350.356 326.67Z"
              fill="black"/>
        <path d="M350.191 272.406C350.404 272.915 350.58 273.438 350.716 273.972C350.58 273.438 350.404 272.915 350.191 272.406Z"
              fill="#D6F0FF"/>
        <path opacity="0.1"
              d="M350.191 272.406C350.404 272.915 350.58 273.438 350.716 273.972C350.58 273.438 350.404 272.915 350.191 272.406Z"
              fill="black"/>
        <path d="M350.479 326.302C350.853 325.115 351.05 323.863 351.038 322.581L351.039 276.436L351.038 322.581C351.05 323.863 350.853 325.115 350.479 326.302Z"
              fill="#D6F0FF"/>
        <path opacity="0.1"
              d="M350.479 326.302C350.853 325.115 351.05 323.863 351.038 322.581L351.039 276.436L351.038 322.581C351.05 323.863 350.853 325.115 350.479 326.302Z"
              fill="black"/>
        <g clip-path="url(#clip2_116_64)">
            <path d="M479.19 408.8C479.19 418.507 475.649 427.816 469.347 434.68C463.045 441.544 454.497 445.4 445.584 445.4C441.128 445.4 436.854 447.328 433.703 450.76C430.552 454.192 428.782 458.847 428.782 463.7C428.782 468.553 430.552 473.208 433.703 476.64C436.854 480.072 441.128 482 445.585 482C463.41 482 480.505 474.288 493.109 460.56C505.714 446.833 512.795 428.214 512.795 408.8L512.795 353.9C512.795 344.193 516.335 334.884 522.637 328.02C528.939 321.156 537.487 317.3 546.4 317.3C550.856 317.3 555.13 315.372 558.281 311.94C561.432 308.508 563.202 303.853 563.202 299C563.202 294.147 561.432 289.492 558.281 286.06C555.13 282.628 550.856 280.7 546.4 280.7C537.487 280.7 528.939 276.844 522.637 269.98C516.335 263.116 512.795 253.807 512.795 244.1L512.795 189.2C512.795 169.786 505.714 151.167 493.109 137.44C480.505 123.712 463.41 116 445.584 116C441.128 116 436.854 117.928 433.703 121.36C430.552 124.792 428.782 129.447 428.782 134.3C428.782 139.153 430.552 143.808 433.703 147.24C436.854 150.672 441.128 152.6 445.584 152.6C454.497 152.6 463.045 156.456 469.347 163.32C475.649 170.184 479.19 179.493 479.19 189.2L479.19 244.1C479.244 254.521 481.34 264.81 485.339 274.278C489.338 283.745 495.147 292.174 502.377 299C495.147 305.826 489.338 314.255 485.339 323.722C481.34 333.19 479.244 343.479 479.19 353.9L479.19 408.8ZM210.349 317.3C219.262 317.3 227.809 321.156 234.112 328.02C240.414 334.884 243.954 344.193 243.954 353.9L243.954 408.8C243.954 428.214 251.035 446.833 263.64 460.56C276.244 474.288 293.339 482 311.164 482C315.621 482 319.894 480.072 323.046 476.64C326.197 473.208 327.967 468.553 327.967 463.7C327.967 458.847 326.197 454.192 323.046 450.76C319.894 447.328 315.621 445.4 311.164 445.4C302.252 445.4 293.704 441.544 287.402 434.68C281.1 427.816 277.559 418.507 277.559 408.8L277.559 353.9C277.505 343.479 275.409 333.19 271.41 323.722C267.411 314.255 261.602 305.826 254.372 299C261.602 292.174 267.411 283.745 271.41 274.278C275.409 264.81 277.505 254.521 277.559 244.1L277.559 189.2C277.559 179.493 281.1 170.184 287.402 163.32C293.704 156.456 302.252 152.6 311.164 152.6C315.621 152.6 319.894 150.672 323.045 147.24C326.197 143.808 327.967 139.153 327.967 134.3C327.967 129.447 326.197 124.792 323.045 121.36C319.894 117.928 315.621 116 311.164 116C293.339 116 276.244 123.712 263.64 137.44C251.035 151.167 243.954 169.786 243.954 189.2L243.954 244.1C243.954 253.807 240.414 263.116 234.112 269.98C227.809 276.844 219.262 280.7 210.349 280.7C205.893 280.7 201.619 282.628 198.468 286.06C195.317 289.492 193.547 294.147 193.547 299C193.547 303.853 195.317 308.508 198.468 311.94C201.619 315.372 205.893 317.3 210.349 317.3Z"
                  fill="#607D8B"/>
        </g>
    </g>
    <defs>
        <clipPath id="clip0_116_64">
            <rect width="600" height="600" fill="white"/>
        </clipPath>
        <clipPath id="clip1_116_64">
            <rect width="341" height="366" fill="white" transform="translate(-139 116)"/>
        </clipPath>
        <clipPath id="clip2_116_64">
            <rect width="341" height="366" fill="white" transform="translate(738 482) rotate(180)"/>
        </clipPath>
    </defs>
</svg>
